<svg width="60" height="39" viewBox="0 0 60 39" fill="none" xmlns="http://www.w3.org/2000/svg">
<g clip-path="url(#clip0_0_27)">
<path fill-rule="evenodd" clip-rule="evenodd" d="M26.2904 5.35418L26.2918 5.36468L26.2928 5.38338L26.2904 5.36308V5.35418ZM34.1556 12.6636L34.1318 12.6277L34.1209 12.6042L34.1181 12.5912L34.1205 12.5871L34.1266 12.5908L34.1333 12.5964L34.1485 12.62L34.1761 12.6736L34.1871 12.698L34.1556 12.6636ZM41.6531 11.3522L41.6561 11.3595L41.6597 11.3769L41.6636 11.4031L41.6675 11.4371L41.6689 11.4517L41.6643 11.4389L41.6535 11.3834L41.6516 11.3584L41.6531 11.3522ZM40.952 25.9013L40.9051 26.1772L40.855 26.4517L40.8015 26.7238L40.7445 26.9943L40.6841 27.2628L40.62 27.5298L40.5525 27.7943L40.4812 28.057L40.4062 28.3175L40.3274 28.5762L40.2449 28.8321L40.1584 29.0863L40.0682 29.338L39.974 29.5875L39.8762 29.834L39.7741 30.0788L39.6683 30.3209L39.5585 30.5605L39.4446 30.7979L39.3266 31.0331L39.2048 31.2654L39.0789 31.4955L38.9487 31.7235L38.8143 31.9493L38.6756 32.173L38.5325 32.395L38.3846 32.6154L38.3345 32.6878L38.3279 32.6973L38.3289 32.6953L38.3296 32.6937L38.3216 32.7038L38.3062 32.7233L38.2843 32.751L38.2569 32.7849L38.2248 32.8242L38.1882 32.8686L38.1476 32.9169L38.1032 32.9692L38.0555 33.0248L38.0046 33.0833L37.9508 33.1445L37.8948 33.2072L37.8361 33.2721L37.7753 33.3385L37.7124 33.4065L37.6097 33.5154L37.4691 33.6609L37.3295 33.8009L37.1874 33.9388L37.0451 34.0722L36.9045 34.1989L36.7669 34.3175L36.6358 34.425L36.5126 34.5204L36.3999 34.6018L36.3001 34.6681L36.2521 34.6963L36.2329 34.7064L36.2012 34.7236L36.1736 34.7374L36.1503 34.7479L36.1281 34.7747L36.1075 34.8037L36.0877 34.8311L36.0685 34.8571L36.0499 34.8812L36.0323 34.9023L36.0133 34.9225L35.9932 34.9418L35.9729 34.9572L35.9519 34.9686L35.9283 34.9787L35.9018 34.987L35.8721 34.9932L35.8419 34.9927L35.8098 34.9875L35.7746 34.9781L35.7367 34.964L35.6964 34.9442L35.6539 34.9182L35.6413 34.9083L35.6529 34.9202L35.6008 34.8698L35.5156 34.7811L35.442 34.6955L35.3757 34.6087L35.3173 34.5193L35.2692 34.4255L35.2275 34.3309L35.1917 34.2352L35.1619 34.1392L35.1375 34.0421L35.1203 33.9435L35.1099 33.8429L35.1043 33.7419L35.1039 33.6402L35.1089 33.5376L35.1183 33.4339L35.1323 33.3295L35.1505 33.2246L35.1728 33.1187L35.1992 33.0114L35.2297 32.903L35.2642 32.7934L35.3028 32.6821L35.3453 32.5694L35.3919 32.4548L35.4426 32.3383L35.4973 32.2197L35.5558 32.0994L35.6186 31.9768L35.6854 31.8522L35.7567 31.725L35.832 31.5956L35.9113 31.4644L35.9952 31.3305L36.0831 31.1944L36.1751 31.0563L36.2716 30.9155L36.3719 30.7732L36.4767 30.628L36.5852 30.4814L36.6978 30.3327L36.8144 30.182L36.9348 30.0295L37.0593 29.875L37.1873 29.7189L37.3186 29.5614L37.4537 29.4022L37.5922 29.2414L37.8118 28.9916L38.1137 28.6571L38.4221 28.3247L38.7419 27.9888L39.0722 27.6498L39.4088 27.3058L39.754 26.9595L40.1069 26.6121L40.4672 26.2636L40.834 25.9148L40.97 25.7867L40.952 25.9013ZM21.5479 20.7353L21.5228 20.7394L21.4962 20.742L21.4684 20.7431L21.4396 20.7426L21.4275 20.7416L21.4793 20.7291L21.5263 20.7222L21.564 20.7208L21.5681 20.7257L21.5316 20.7307L21.57 20.7278L21.5717 20.7301L21.5479 20.7353ZM19.2253 13.8727L19.2214 13.8868L19.2245 13.871L19.2272 13.8626L19.2253 13.8727ZM54.1303 0.949738L53.658 0.957855L52.716 0.98049L51.7726 1.01332L50.8295 1.05345L49.8847 1.10386L48.9385 1.16392L47.9919 1.23173L47.0432 1.31073L46.0828 1.42012L45.1101 1.56243L44.1224 1.74225L43.1368 1.9264L42.1518 2.11461L41.1681 2.30651L40.1858 2.50175L39.203 2.70042L37.7323 3.00334L35.7561 3.45912L33.7339 4.03483L31.6971 4.65564L29.8856 5.18446L29.9061 5.07561L29.9314 4.93601L29.9551 4.79993L29.9775 4.6661L29.9985 4.53507L30.0179 4.40683L30.0358 4.2813L30.0522 4.15883L30.0671 4.03889L30.0803 3.92184L30.0919 3.80758L30.1018 3.69602L30.1099 3.58708L30.1163 3.48085L30.1207 3.37678L30.1231 3.27524L30.1236 3.21869C30.1237 3.21464 30.1237 3.21058 30.1236 3.20652L30.1235 3.17505L30.1222 3.1002L30.1193 3.02336L30.1142 2.94725L30.1059 2.86861L30.0922 2.78249L30.0669 2.67968L30.0132 2.54504L29.871 2.35846L29.397 2.17638L28.1104 2.5794L27.014 3.51611L26.606 4.07199L26.4425 4.36778L26.3587 4.55121L26.3063 4.68341L26.2681 4.79064L26.2377 4.88371L26.2113 4.96983L26.1873 5.05316L26.1649 5.13477L26.1432 5.21684L26.1221 5.29989L26.1012 5.38457L26.0805 5.4706L26.06 5.5588L26.0294 5.69299L25.9881 5.88102L25.946 6.0787L25.9093 6.25644L25.6931 6.31262L23.7247 6.78626L22.7402 7.0173C22.2362 7.12434 21.6321 7.64532 21.3909 8.18082C21.1498 8.7164 21.3629 9.06378 21.867 8.95673L22.8291 8.77448L24.7524 8.41168L25.53 8.27641L25.501 8.44288L25.4671 8.63975L25.4353 8.82741L25.4128 8.96187L25.3986 9.04791L25.385 9.13024L25.3721 9.20951L25.3599 9.28544L25.3483 9.35804L25.3428 9.39357V9.39321L25.3312 9.4659L25.3073 9.61415L25.282 9.7689L25.2549 9.9324L25.2264 10.1036L25.1965 10.2826L25.1657 10.4683L25.134 10.6604L25.1016 10.8592L25.0862 10.9548L25.0429 11.1005L24.9325 11.4643L24.8186 11.8318L24.7015 12.202L24.5812 12.5745L24.458 12.9482L24.3331 13.3197L24.1394 13.8813L23.939 14.4451L23.8037 14.8161L23.6664 15.1848L23.5276 15.5499L23.3871 15.9114L23.2455 16.2679L23.1029 16.6191L22.9594 16.9641L22.8154 17.3021L22.6713 17.632L22.5272 17.9535L22.3837 18.2651L22.2483 18.5652L22.1141 18.854L21.9814 19.1308L21.851 19.3937L21.7234 19.6424L21.5995 19.8747L21.4804 20.0898L21.3619 20.2939L21.2754 20.437L21.2239 20.5198L21.175 20.5967L21.141 20.6489L21.1409 20.6488L21.1053 20.6275L21.0698 20.6039L21.0342 20.5778L20.9986 20.5496L20.9631 20.519L20.9279 20.4861L20.8929 20.4508L20.8584 20.4132L20.8265 20.3766L20.778 20.3158L20.7124 20.2223L20.6492 20.1202L20.5889 20.0098L20.5316 19.8914L20.4775 19.7657L20.4268 19.6328L20.3794 19.4933L20.3354 19.3474L20.2952 19.196L20.2584 19.0391L20.2252 18.8771L20.211 18.7975L20.2378 18.7214L20.3289 18.4441L20.4399 18.0748L20.5409 17.7038L20.6316 17.3373L20.716 16.974L20.7935 16.6151L20.8653 16.2605L20.9328 15.9105L21.028 15.3968L21.1201 14.8942L21.1838 14.568L21.2155 14.4103L21.2116 14.4272L21.2178 14.3984L21.2232 14.3767L21.2292 14.3553L21.2395 14.3218L21.2542 14.2775L21.2727 14.2241L21.3085 14.1266L21.3643 13.9806L21.4265 13.8216L21.4936 13.65L21.5469 13.5131L21.5837 13.4167L21.6191 13.3211L21.6537 13.2236L21.6873 13.1239L21.7192 13.0221L21.7491 12.9166L21.776 12.8068L21.7988 12.691L21.8151 12.5672L21.8208 12.4341L21.8085 12.2906L21.775 12.1628L21.7316 12.0717L21.6794 12.0001L21.61 11.9357L21.5222 11.8824L21.4159 11.8441L21.2933 11.8238L21.1587 11.8225L21.0168 11.8395L20.8731 11.8721L20.7316 11.9171L20.596 11.9709L20.5057 12.0118C20.4783 12.0248 20.4508 12.0385 20.4232 12.053L20.3818 12.0747L20.1239 12.2281L19.8161 12.4493L19.5342 12.6917L19.2879 12.939L19.077 13.1817L18.8979 13.4145L18.7441 13.6377L18.6091 13.8526L18.4892 14.0616L18.3814 14.2666L18.2831 14.4692L18.1925 14.6712L18.1071 14.874L18.0264 15.0778L17.9495 15.2837L17.8749 15.4926L17.8034 15.7039L17.7355 15.9178L17.6705 16.1344L17.6084 16.3537L17.5496 16.5755L17.4939 16.7994L17.4415 17.0256L17.3922 17.2534L17.3461 17.4828L17.3035 17.7136L17.2643 17.9455L17.2286 18.1781L17.1966 18.411L17.1681 18.6441L17.1435 18.8768L17.1227 19.1092L17.106 19.3407L17.0933 19.5709L17.0849 19.7997L17.0808 20.0267L17.0812 20.2515L17.0838 20.3634L17.0428 20.4352L17.0624 20.3994L17.04 20.4349L16.9654 20.5506L16.8848 20.6667L16.798 20.7833L16.7047 20.901L16.6046 21.0198L16.4973 21.1399L16.3832 21.2611L16.2621 21.3833L16.1334 21.5067L15.9974 21.6311L15.8542 21.7555L15.704 21.8798L15.5465 22.0044L15.3829 22.1283L15.2122 22.2519L15.0359 22.3743L14.8532 22.4956L14.6651 22.6151L14.4717 22.7326L14.2729 22.848L14.0697 22.9607L13.8617 23.0706L13.65 23.1772L13.4341 23.2806L13.2149 23.3801L12.9909 23.4835L12.7633 23.5838L12.5326 23.6799L12.299 23.7713L12.0627 23.8581L11.8248 23.9396L11.5843 24.016L11.3426 24.0866L11.0995 24.1514L10.8554 24.2103L10.6107 24.2627L10.3655 24.3087L10.1205 24.3478L9.87514 24.3801L9.63062 24.4051L9.38639 24.4227L9.14345 24.4325L8.90133 24.4346L8.66088 24.4285L8.42237 24.4143L8.17822 24.3943L7.99553 24.3732L7.87789 24.3567L7.76062 24.3378L7.6439 24.3166L7.52829 24.2932L7.41295 24.2674L7.29854 24.2391L7.18495 24.2084L7.07202 24.1753L6.9601 24.1397L6.84891 24.1016L6.73865 24.0608L6.6294 24.0176L6.52108 23.9717L6.41387 23.9232L6.30748 23.872L6.20229 23.818L6.09821 23.7613L5.99524 23.7019L5.89338 23.6396L5.79281 23.5745L5.69343 23.5065L5.59535 23.4356L5.49856 23.3617L5.40316 23.285L5.30904 23.2052L5.2165 23.1224L5.12524 23.0363L5.03537 22.9472L4.94726 22.8551L4.86043 22.7596L4.77545 22.661L4.69204 22.5592L4.60798 22.4509L4.56665 22.3955L4.53168 22.3475L4.4551 22.2361L4.38331 22.1234L4.31651 22.01L4.25432 21.8954L4.19674 21.7798L4.14378 21.6632L4.09525 21.5458L4.05105 21.4277L4.01119 21.3088L3.97548 21.1889L3.94393 21.0688L3.91634 20.9477L3.89272 20.826L3.87297 20.7037L3.85692 20.581L3.84465 20.4578L3.83597 20.3337L3.83081 20.2097L3.82915 20.085L3.8309 19.9598L3.83597 19.8341L3.84428 19.7083L3.8559 19.5816L3.87057 19.4552L3.88829 19.3279L3.90914 19.2006L3.93286 19.0729L3.95961 18.9446L3.98914 18.8162L4.02153 18.6874L4.05668 18.5584L4.09469 18.429L4.13539 18.299L4.17875 18.1689L4.22461 18.0388L4.27323 17.9079L4.32029 17.7868L4.39724 17.5993L4.51369 17.3362L4.63982 17.072L4.77545 16.8071L4.92022 16.5417L5.07376 16.2761L5.23606 16.0101L5.40629 15.7448L5.58465 15.4798L5.77057 15.2157L5.96387 14.9525L6.16391 14.6912L6.37041 14.4315L6.58309 14.1741L6.80121 13.9196L7.02459 13.668L7.25268 13.42L7.48483 13.176L7.72085 12.9362L7.96001 12.7012L8.20222 12.4712L8.44617 12.247L8.69179 12.0288L8.93833 11.8171L9.1858 11.612L9.43308 11.4141L9.67953 11.2239L9.92533 11.0412L10.1688 10.8672L10.4104 10.7015L10.6487 10.5449L10.8839 10.3973L11.1246 10.2536L11.3051 10.151L11.4175 10.0893L11.529 10.0299L11.6387 9.97316L11.7471 9.91897L11.8545 9.86693L11.96 9.81769L12.0641 9.77098L12.1664 9.72688L12.2674 9.68513L12.3666 9.64599L12.4642 9.60937L12.5602 9.57528L12.6545 9.54363L12.7472 9.5145L12.8376 9.48808L12.9288 9.45931L13.0371 9.39105L13.1454 9.32566L13.2537 9.26326L13.3623 9.20383L13.4706 9.14756L13.5787 9.09453L13.6959 9.04439L13.768 9.02004C14.4846 8.97865 15.4583 8.26054 15.9428 7.41608C16.4274 6.57162 16.2393 5.92061 15.5226 5.962L15.4757 5.94451L15.3514 5.91375L15.2142 5.88778L15.0731 5.86614L14.9285 5.84864L14.78 5.83548L14.6279 5.82664L14.4724 5.82195L14.2965 5.86397L14.1165 5.91511L13.9358 5.97048L13.7536 6.03018L13.5704 6.09394L13.386 6.16184L13.2006 6.23381L13.0144 6.30956L12.8273 6.38919L12.6395 6.47243L12.4512 6.55927L12.2626 6.64954L12.0732 6.74333L11.8833 6.84063L11.6934 6.94092L11.5028 7.04471L11.2262 7.20073L10.8533 7.42095L10.4706 7.65822L10.0879 7.90685L9.70619 8.16603L9.32512 8.43585L8.94599 8.71514L8.56806 9.00435L8.19253 9.30258L7.81958 9.60946L7.44921 9.9251L7.08217 10.2489L6.71881 10.5804L6.35989 10.9192L6.00521 11.2653L5.65542 11.6182L5.31079 11.9779L4.97208 12.3437L4.63973 12.7153L4.31383 13.0928L3.99541 13.4753L3.68465 13.8629L3.38192 14.2551L3.08823 14.6515L2.80377 15.0519L2.52917 15.4557L2.26501 15.8631L2.01229 16.2724L1.7711 16.6844L1.54245 17.0979L1.32691 17.5128L1.12512 17.9282L0.937725 18.3439L0.803106 18.6648L0.717204 18.8818L0.639421 19.0887L0.565514 19.2955L0.495944 19.5014L0.430617 19.7068L0.369536 19.9117L0.31279 20.1159L0.260659 20.3192L0.212956 20.5217L0.169959 20.723L0.131575 20.9235L0.0979892 21.1227L0.0692937 21.3206L0.0453961 21.5174L0.0264811 21.7122L0.0125485 21.9062L0.00369074 22.0982L0 22.2886L0.00138403 22.4775L0.0079351 22.6647L0.0198377 22.8497L0.0369997 23.0329L0.059421 23.2143L0.0872861 23.3934L0.120503 23.5704L0.159256 23.7453L0.203452 23.9183L0.253093 24.0886L0.308362 24.2568L0.369167 24.4225L0.4356 24.5858L0.507662 24.7466L0.585352 24.905L0.66867 25.0607L0.757894 25.2141L0.852654 25.3646L0.953227 25.5125L1.00896 25.59C1.0108 25.5925 1.01265 25.595 1.01449 25.5975L1.05906 25.6574L1.15686 25.7837L1.25937 25.9095L1.36419 26.0317L1.47104 26.1499L1.58028 26.2648L1.69156 26.3759L1.80505 26.4835L1.92075 26.5876L2.0384 26.688L2.15816 26.7851L2.27986 26.8785L2.4035 26.9684L2.52908 27.0549L2.6566 27.138L2.78577 27.2176L2.91698 27.2939L3.04985 27.3668L3.18447 27.4364L3.32065 27.5026L3.45878 27.5655L3.59838 27.6252L3.73955 27.6816L3.88211 27.7348L4.02623 27.7847L4.17192 27.8315L4.31891 27.8752L4.46746 27.9158L4.61712 27.9532L4.76807 27.9875L4.92059 28.0189L5.07394 28.0472L5.22858 28.0725L5.38452 28.0948L5.61537 28.1223L5.92816 28.1492L6.2523 28.162L6.57949 28.1633L6.90962 28.1537L7.2429 28.1333L7.57839 28.1024L7.91637 28.061L8.25573 28.0097L8.59703 27.9486L8.93916 27.8777L9.2825 27.7974L9.62629 27.7081L9.97045 27.6097L10.3148 27.5025L10.6586 27.3868L11.0024 27.2625L11.3451 27.1302L11.6869 26.9899L12.0274 26.8418L12.3665 26.686L12.7038 26.5218L13.0402 26.3427L13.3733 26.157L13.7038 25.9642L14.0305 25.7653L14.3536 25.5598L14.6726 25.3482L14.9876 25.1304L15.298 24.9069L15.6034 24.6775L15.9042 24.4423L16.1991 24.2018L16.4888 23.9556L16.7718 23.7044L17.0488 23.4477L17.3191 23.1863L17.582 22.9206L17.6034 22.898L17.6475 22.9838L17.7163 23.1016L17.7659 23.179L17.8156 23.2511L17.8674 23.3209L17.9218 23.3887L17.9785 23.4541L18.0378 23.5173L18.0999 23.5777L18.1647 23.6359L18.2324 23.6911L18.303 23.7439L18.3769 23.7938L18.4537 23.8405L18.5341 23.8841L18.6179 23.9244L18.7052 23.9613L18.7964 23.9946L18.8915 24.024L18.9903 24.0493L19.0935 24.0703L19.2007 24.0868L19.3121 24.0985L19.4281 24.1053L19.5484 24.1068L19.6233 24.1049C19.636 24.1043 19.6488 24.1034 19.6617 24.1023L19.6957 24.1008L19.8413 24.0855L20.0218 24.0541L20.2125 24.0075L20.4114 23.9452L20.6166 23.8672L20.8262 23.774L21.0377 23.6667L21.2483 23.547L21.4559 23.4169L21.6586 23.2782L21.8544 23.1333L22.0431 22.9834L22.2234 22.8306L22.3963 22.6755L22.561 22.5196L22.7181 22.3632L22.8688 22.2062L23.0126 22.0499L23.151 21.8935L23.2843 21.737L23.4132 21.5804L23.5379 21.4239L23.6579 21.2667L23.774 21.1087L23.8869 20.9506L23.9973 20.7919L24.1053 20.6324L24.2583 20.3997L24.4598 20.0809L24.6609 19.749L24.8573 19.4114L25.0497 19.0684L25.2389 18.7193L25.3925 18.4264L25.4312 18.5841L25.493 18.8099L25.5604 19.0319L25.6324 19.2504L25.7082 19.466L25.7905 19.6767L25.8794 19.8825L25.9751 20.0827L26.0778 20.2773L26.1879 20.4659L26.3054 20.6479L26.4002 20.7823L26.4661 20.87L26.533 20.9542L26.602 21.0365L26.6728 21.1168L26.7458 21.1953L26.8211 21.2719L26.8984 21.3463L26.9773 21.4192L27.0584 21.4902L27.1419 21.559L27.2275 21.6255L27.3156 21.6898L27.4062 21.7519L27.4988 21.8114L27.5941 21.8688L27.6916 21.9235L27.7918 21.9758L27.8942 22.0256L27.9993 22.0727L28.1069 22.1172L28.2169 22.159L28.3297 22.1981L28.4446 22.2346L28.5066 22.253C28.5093 22.2538 28.5121 22.2547 28.515 22.2555L28.6129 22.2824L28.8223 22.3338L29.0355 22.3776L29.2483 22.4124L29.4606 22.4382L29.6722 22.4557L29.883 22.4653L30.094 22.4659L30.3051 22.4576L30.5168 22.4402L30.729 22.4137L30.9421 22.3779L31.1561 22.3326L31.3709 22.2776L31.587 22.2129L31.8035 22.1384L32.0211 22.0538L32.2388 21.9599L32.4568 21.857L32.6745 21.744L32.8914 21.621L33.1071 21.4887L33.3205 21.3472L33.5312 21.1973L33.7376 21.04L33.9399 20.8756L34.1372 20.7049L34.3283 20.5292L34.5145 20.3498L34.6946 20.1669L34.8681 19.9806L35.0352 19.7917L35.179 19.6207L35.2994 19.7289L35.3998 19.8088L35.4706 19.8603L35.5407 19.907L35.613 19.9513L35.6875 19.9933L35.7642 20.0327L35.8434 20.0696L35.925 20.1037L36.0089 20.1349L36.0956 20.1634L36.1846 20.1887L36.2764 20.2109L36.3709 20.2299L36.4679 20.2455L36.5671 20.2585L36.6692 20.2679L36.7283 20.2717C36.733 20.2721 36.7377 20.2724 36.7425 20.2727L36.8295 20.2758L37.0222 20.2786L37.22 20.275L37.4169 20.2646L37.6132 20.2473L37.809 20.2231L38.0043 20.1921L38.1992 20.155L38.3943 20.1102L38.5903 20.0577L38.7868 19.9971L38.9845 19.9279L39.1826 19.8502L39.382 19.7637L39.5816 19.6684L39.7814 19.5651L39.981 19.4527L40.1799 19.3313L40.3772 19.2015L40.572 19.0637L40.7631 18.9187L40.9501 18.7673L41.1323 18.61L41.3086 18.4492L41.314 18.444L41.3231 19.0179L41.3297 19.63L41.3319 20.2375L41.3289 20.8411L41.3199 21.44L41.3039 22.0343L41.2964 22.2222L41.2664 22.2491L40.8423 22.6335L40.4172 23.0235L39.9926 23.4182L39.5687 23.8177L39.1484 24.2246L38.7324 24.6361L38.3193 25.0514L37.91 25.4704L37.5058 25.8924L37.1075 26.3175L36.7189 26.7477L36.3378 27.1803L35.9646 27.6148L35.6062 28.0445L35.3451 28.3658L35.1709 28.5845L34.9993 28.8037L34.8305 29.0234L34.6647 29.243L34.5024 29.4629L34.3433 29.6832L34.1874 29.9038L34.0349 30.1246L33.8861 30.3455L33.7414 30.5661L33.6003 30.7872L33.4638 31.0078L33.3311 31.2288L33.2032 31.4493L33.0799 31.6696L32.9614 31.89L32.8483 32.1094L32.7404 32.3282L32.638 32.5467L32.5414 32.7642L32.4508 32.9807L32.3666 33.1957L32.289 33.4095L32.2181 33.6217L32.1541 33.8321L32.0974 34.0403L32.048 34.2465L32.0062 34.4498L31.9722 34.6504L31.9461 34.8482L31.928 35.0427L31.918 35.2334L31.9163 35.4205L31.923 35.604L31.9374 35.7838L31.9599 35.9596L31.9909 36.1308L32.0288 36.299L32.0736 36.4638L32.1269 36.6244L32.1886 36.7799L32.2588 36.9313L32.3375 37.0779L32.4207 37.2232L32.5111 37.3655L32.6096 37.5031L32.7121 37.6316L32.7597 37.6875C32.7635 37.6916 32.7673 37.6955 32.7712 37.6994L32.8266 37.7571L32.9246 37.8543L33.0306 37.9417L33.1449 38.0192L33.2673 38.0864L33.3981 38.143L33.5357 38.1901L33.6786 38.2299L33.8292 38.2584L33.9869 38.2758L34.1513 38.2818L34.3202 38.2796L34.4929 38.2695L34.67 38.2489L34.8516 38.2182L35.0349 38.1801L35.2204 38.1336L35.4076 38.0789L35.596 38.0165L35.7849 37.9429L35.9741 37.8447L36.1607 37.7416L36.3441 37.6343L36.541 37.5127L36.8186 37.3308L37.1537 37.0956L37.4754 36.854L37.7841 36.6082L38.0804 36.3599L38.3641 36.1112L38.6364 35.8626L38.8969 35.6158L39.1456 35.3721L39.3828 35.1322L39.6031 34.9032L39.7596 34.7366L39.8634 34.6242L39.9644 34.5134L40.0623 34.4047L40.1572 34.298L40.2486 34.1939L40.3369 34.092L40.4221 33.9924L40.5042 33.8953L40.5834 33.8003L40.6595 33.7077L40.7331 33.6171L40.8039 33.5283L40.8725 33.441L40.9398 33.3538L41.0062 33.2657L41.073 33.1749L41.1315 33.093L41.1448 33.0739C41.1518 33.0639 41.1587 33.0539 41.1656 33.0439L41.2912 32.8606L41.5152 32.5238L41.7306 32.1873L41.9371 31.8513L42.1351 31.516L42.3245 31.1816L42.5056 30.8479L42.6787 30.5152L42.8436 30.1841L43.0009 29.8538L43.1507 29.5245L43.2932 29.1963L43.4284 28.8697L43.557 28.5433L43.6787 28.2188L43.7941 27.8951L43.903 27.5727L44.0061 27.2508L44.1033 26.9302L44.1948 26.6103L44.281 26.2913L44.3619 25.9728L44.4377 25.6556L44.5086 25.3386L44.5749 25.0224L44.6366 24.7066L44.6939 24.3918L44.747 24.0772L44.7962 23.7629L44.8415 23.4489L44.883 23.1359L44.921 22.8227L44.9557 22.5099L44.9873 22.194L44.9882 22.1839L44.9947 22.1784L45.365 21.8641L45.638 21.6339L45.8181 21.4827L45.9979 21.3321L46.1764 21.1832L46.3527 21.0363L46.5274 20.8913L46.7004 20.748L46.8713 20.6069L47.0398 20.468L47.2061 20.3311L47.3706 20.1961L47.5322 20.0634L47.6915 19.9331L47.8482 19.8052L48.002 19.6795L48.1532 19.5562L48.3016 19.4353L48.447 19.3168L48.5895 19.2008L48.7292 19.087L48.8651 18.9764L48.9981 18.8679L49.1278 18.7622L49.2542 18.659L49.3773 18.5582L49.4972 18.46L49.6132 18.3647L49.726 18.2717L49.8357 18.181L49.9419 18.0928L50.045 18.0068L50.1449 17.9228L50.242 17.8406L50.3367 17.7598L50.4289 17.6802L50.5195 17.6012L50.5713 17.5556C51.56 16.6824 52.0574 15.5262 51.6821 14.9732C51.307 14.4202 50.2012 14.6797 49.2126 15.5528L49.1994 15.5646L49.1524 15.6057L49.0968 15.6538L49.0333 15.7081L48.9622 15.7684L48.8842 15.8339L48.7998 15.9045L48.7091 15.9798L48.6129 16.0594L48.5108 16.1435L48.4033 16.2319L48.291 16.324L48.1737 16.4198L48.0515 16.5197L47.9248 16.623L47.7937 16.7298L47.658 16.8404L47.5189 16.9537L47.3753 17.0706L47.2279 17.1905L47.0769 17.3137L46.9223 17.4399L46.7638 17.5691L46.6024 17.7011L46.4376 17.8361L46.2697 17.9737L46.0991 18.1137L45.9253 18.2567L45.7485 18.4025L45.5694 18.5505L45.3879 18.7008L45.2037 18.8537L45.1542 18.8949L45.1585 18.6072L45.1615 17.9839L45.1591 17.3599L45.1525 16.736L45.1425 16.1112L45.1301 15.4858L45.1053 14.5499L45.0474 13.6315L45.0103 13.0179L44.9926 12.7078V12.7103L44.9859 12.5935L44.9735 12.3651L44.9607 12.1475L44.9456 11.9413L44.9318 11.744L44.9192 11.5557L44.9077 11.376L44.8973 11.2053L44.8881 11.043L44.8798 10.8897L44.8726 10.7445L44.8662 10.6079L44.8609 10.4795L44.8564 10.3592L44.8526 10.2473L44.8507 10.1832L44.8581 10.1139L44.8671 10.0238L44.8749 9.93727L44.8817 9.85467L44.8876 9.77594L44.8924 9.70118L44.8962 9.63057L44.8991 9.56365L44.901 9.50016L44.9019 9.44037L44.9018 9.38356L44.9004 9.32864L44.8974 9.27489L44.8924 9.21943L44.8834 9.15775L44.8656 9.07965L44.8192 8.96043L44.6149 8.74291L43.1087 9.06017L41.8693 10.3791L41.6928 10.7741L41.6429 10.9417L41.6189 11.0459L41.6031 11.1277L41.5903 11.2017L41.5789 11.2745L41.5682 11.3491L41.5577 11.4271L41.5472 11.5103L41.5367 11.5989L41.5261 11.6937L41.5152 11.7955L41.504 11.9044L41.4925 12.0204L41.4809 12.1443L41.4692 12.2758L41.4574 12.4154L41.4455 12.5631L41.4335 12.7193L41.4214 12.8838L41.4093 13.0574L41.3972 13.2394L41.385 13.4307L41.373 13.631L41.361 13.8407L41.3491 14.0599L41.3373 14.2889L41.3292 14.5251L41.323 14.7701L41.3204 14.8869L41.2683 15.0803L41.1999 15.313L41.1268 15.5399L41.0495 15.7599L40.9687 15.9711L40.8809 16.1796L40.8096 16.3316L40.7646 16.4226L40.7197 16.51L40.6748 16.5934L40.6306 16.6723L40.5867 16.7469L40.5442 16.8166L40.5022 16.8815L40.461 16.9416L40.4216 16.9966L40.384 17.047L40.3485 17.0925L40.3145 17.1343L40.2824 17.172L40.2516 17.2065L40.2213 17.2386L40.1915 17.2676L40.1609 17.2957L40.129 17.3232L40.0951 17.3504L40.0579 17.378L40.0168 17.4063L39.9706 17.4356L39.9185 17.4655L39.8605 17.495L39.7961 17.5242L39.7244 17.5534L39.6462 17.5818L39.5605 17.6092L39.4681 17.6347L39.3684 17.658L39.2621 17.6788L39.1498 17.695L39.0314 17.7072L38.9069 17.7153L38.7763 17.719L38.64 17.7179L38.4917 17.7115L38.4056 17.7056L38.4198 17.7065L38.4035 17.705L38.3569 17.6996L38.3106 17.6925L38.2652 17.6827L38.2201 17.671L38.1754 17.6575L38.1307 17.6419L38.0869 17.6246L38.0431 17.6053L37.9997 17.5839L37.9568 17.5606L37.9144 17.5353L37.8724 17.5081L37.8309 17.4788L37.7901 17.4475L37.7527 17.4166L37.6958 17.3653L37.6186 17.2871L37.5452 17.2004L37.4756 17.105L37.4096 17.0028L37.3468 16.8934L37.2876 16.7773L37.2319 16.6549L37.1798 16.5264L37.1314 16.3922L37.0943 16.2728L37.1053 16.2443L37.1773 16.0463L37.2452 15.8488L37.3122 15.6511L37.3751 15.4537L37.4338 15.2572L37.4884 15.0616L37.5386 14.8672L37.5848 14.6739L37.6267 14.4819L37.6642 14.2915L37.6976 14.1026L37.7299 13.9136L37.7588 13.7261L37.7832 13.5405L37.794 13.4426C37.7941 13.4377 37.7943 13.433 37.7944 13.4283L37.795 13.4235L37.7964 13.3932L37.7978 13.3626L37.7993 13.3328L37.801 13.3009L37.8027 13.2669L37.8046 13.23L37.8067 13.1901L37.8099 13.1248L37.8144 13.0276L37.819 12.9186L37.8237 12.7993L37.8284 12.6714L37.8329 12.5352L37.837 12.3919L37.8408 12.2428L37.8458 12.0876L37.8513 11.9279L37.8583 11.685L37.8643 11.3578L37.8654 11.112L37.8643 10.9499L37.8619 10.793L37.8574 10.6403L37.85 10.4936L37.8396 10.3526L37.8263 10.2179L37.8098 10.0895L37.788 9.96757L37.7654 9.87505L37.7466 9.81102L37.7268 9.75186L37.7031 9.69171L37.6742 9.62993L37.6374 9.565L37.5882 9.49557L37.5182 9.42026L37.4121 9.33982L37.2384 9.26254L37.0336 9.22502C36.9533 9.2188 36.8674 9.22132 36.7768 9.23242L36.7664 9.23287L36.0538 9.45625L35.0418 10.1526L34.4512 10.8009L34.1696 11.2238L34.0192 11.5077L33.9249 11.7202L33.8571 11.8961L33.8033 12.0536L33.7627 12.2002L33.7286 12.3423L33.6983 12.4835L33.6735 12.6248L33.6558 12.7663L33.6423 12.9095L33.6316 13.0557L33.6231 13.2053L33.6169 13.3586L33.6121 13.5151L33.6085 13.6758L33.6068 13.8401L33.6073 14.007L33.61 14.177L33.615 14.3499L33.6222 14.5252L33.6319 14.7025L33.6417 14.8833L33.6534 15.0659L33.6678 15.25L33.6847 15.4353L33.7151 15.7114L33.7639 16.0826L33.8058 16.3681L33.8378 16.559L33.8729 16.7454L33.9114 16.9307L33.9534 17.1145L33.9978 17.2972L34.0446 17.4784L34.0954 17.6576L34.1502 17.8334L34.2092 18.0063L34.2291 18.0594L34.2124 18.0963L34.1557 18.2153L34.0975 18.3315L34.0383 18.4439L33.9784 18.5524L33.9171 18.6571L33.8542 18.7571L33.7908 18.8531L33.7278 18.944L33.6649 19.0305L33.603 19.1118L33.5414 19.1889L33.4803 19.2617L33.4197 19.3303L33.3595 19.3946L33.2987 19.4544L33.2381 19.5109L33.1768 19.5647L33.1142 19.6164L33.0501 19.6659L32.9833 19.7142L32.9132 19.7611L32.839 19.8069L32.7602 19.8516L32.6762 19.8951L32.5869 19.936L32.492 19.9742L32.3909 20.01L32.284 20.0431L32.171 20.0727L32.0522 20.0986L31.9272 20.1202L31.7964 20.1369L31.6603 20.1484L31.5187 20.1541L31.3721 20.1535L31.2205 20.1464L31.0652 20.1312L30.9056 20.1083L30.742 20.0777L30.5743 20.039L30.3981 19.9907L30.3016 19.9613L30.31 19.9637L30.2696 19.9505L30.1834 19.9202L30.0992 19.8874L30.0168 19.8525L29.9363 19.8155L29.8575 19.7764L29.7803 19.7352L29.705 19.6919L29.6314 19.6466L29.5596 19.5994L29.4893 19.55L29.4208 19.4989L29.354 19.4456L29.2886 19.3904L29.225 19.3334L29.1629 19.2744L29.1024 19.2135L29.0441 19.1502L28.9876 19.0851L28.9325 19.0181L28.8789 18.9492L28.8269 18.8788L28.7764 18.8067L28.7287 18.7346L28.6594 18.6228L28.5701 18.4649L28.4868 18.3008L28.4092 18.1306L28.3372 17.9543L28.2709 17.7723L28.2099 17.5849L28.1542 17.3923L28.106 17.1931L28.0643 16.9883L28.0276 16.7791L27.9958 16.5657L27.9686 16.3484L27.9461 16.1277L27.9281 15.9037L27.9201 15.6728L27.9185 15.4378L27.921 15.2002L27.9275 14.9608L28.1208 14.6098L28.3384 14.2481L28.3595 14.0045L28.3839 13.7603L28.4112 13.5185L28.4245 13.171L28.4494 12.7027L28.4839 12.2321L28.515 11.8806L28.538 11.6491L28.5625 11.4191L28.5885 11.1909L28.6157 10.9646L28.644 10.7403L28.6735 10.5185L28.7037 10.2991L28.7346 10.083L28.7659 9.87009L28.7977 9.66024L28.8296 9.45471L28.8443 9.36183L28.9465 9.00985L29.0528 8.63524L29.1548 8.26676L29.2526 7.90468L29.3122 7.67742L30.4213 7.52285L32.2772 7.29893L34.1499 7.03975L36.0716 6.67542L37.5266 6.37575L38.4957 6.17988L39.4664 5.98689L40.4371 5.7976L41.4077 5.6121L42.3793 5.43065L43.3503 5.2539L44.338 5.04883L45.3398 4.82085L46.3551 4.57303L47.3746 4.32531L48.3963 4.08155L49.4217 3.84049L50.4511 3.60214L51.4825 3.37002L52.5178 3.14204L53.0351 3.03022C53.543 2.9688 54.1999 2.45333 54.5024 1.87878C54.8048 1.30433 54.6382 0.888325 54.1303 0.949738V0.949738Z" fill="#FEAE95"/>
<path fill-rule="evenodd" clip-rule="evenodd" d="M58.9228 1.2142L58.8243 1.34794L58.7496 1.43208L58.6986 1.48087L58.668 1.5045L58.6533 1.50702V1.49367L58.6727 1.45986L58.6961 1.42965C58.7841 1.35516 58.8638 1.27526 58.9346 1.19283L58.9228 1.2142ZM58.5082 0.389438L58.5554 0.350738L58.557 0.349638C58.5407 0.362938 58.5244 0.375538 58.5082 0.389438V0.389438ZM59.6795 0.164767C59.5647 -0.0437317 59.2587 -0.0489622 58.9138 0.118594C58.7002 0.128153 58.4229 0.251792 58.1574 0.476252L58.1263 0.492124L58.0478 0.543617L57.9636 0.606925L57.8778 0.677627L57.7889 0.761315L57.6917 0.862408L57.5821 0.991276L57.4598 1.16253L57.3375 1.38916L57.2547 1.65943L57.2667 1.90887L57.3735 2.06795L57.5176 2.13612L57.6557 2.15109L57.7756 2.14172L57.8787 2.1217L57.9691 2.09708L58.051 2.06903L58.127 2.03963L58.1991 2.00798L58.2944 1.96226L58.422 1.89426L58.5563 1.81445L58.6919 1.72679L58.8316 1.62877L58.9792 1.51613L59.0834 1.43019C59.5715 1.01977 59.8384 0.453166 59.6795 0.164767V0.164767Z" fill="#FEAE95"/>
<path fill-rule="evenodd" clip-rule="evenodd" d="M22.3035 4.18597L22.2966 4.24324L22.2862 4.29825L22.2721 4.35073L22.2562 4.40006L22.239 4.44624L22.2207 4.48934L22.2015 4.52938L22.1803 4.56663L22.1586 4.60117L22.1364 4.633L22.1137 4.66294L22.0905 4.69117L22.0664 4.71795L22.0408 4.74329L22.014 4.76755L21.9857 4.79109L21.9558 4.81399L21.924 4.83645L21.8905 4.85827L21.855 4.87938L21.8232 4.89687L21.7685 4.92402L21.6826 4.95892L21.592 4.98669L21.4977 5.00725L21.3979 5.02006L21.3661 5.0215L21.4225 4.98471L21.6155 4.836L21.7886 4.68431L21.9434 4.53236L22.0836 4.38104L22.2113 4.2298L22.3083 4.10265L22.3079 4.12591L22.3035 4.18597ZM18.8013 5.129L18.8313 5.24596L18.87 5.36004L18.9197 5.47024L18.9796 5.57684L19.049 5.68099L19.1277 5.78272L19.2133 5.88444L19.3058 5.98626L19.3539 6.03965C19.3978 6.15066 19.5751 6.12965 19.75 5.99275C19.9166 5.86235 20.0192 5.67477 19.9909 5.56123L19.9914 5.56169L20.0453 5.60326L20.1019 5.64086L20.1609 5.6745L20.2222 5.70426L20.2857 5.73014L20.3512 5.75215L20.4188 5.77036L20.4881 5.78479L20.559 5.79553L20.6315 5.80256L20.7054 5.8059L20.7807 5.80563L20.8572 5.80175L20.9706 5.78939L21.1257 5.76081L21.2874 5.71761L21.4515 5.65962L21.617 5.58757L21.7474 5.52092L21.8369 5.46961L21.9207 5.41694L22.0041 5.36013L22.0867 5.29917L22.1684 5.23406L22.2485 5.1648L22.3268 5.09184L22.4027 5.01555L22.4763 4.93628L22.5463 4.85413L22.6126 4.76944L22.6748 4.68269L22.7324 4.59449L22.7854 4.50503L22.8347 4.41458L22.8793 4.32332L22.919 4.23142L22.9537 4.13908L22.9835 4.04628L23.0102 3.95259L23.0333 3.8578L23.0517 3.76248L23.0655 3.66644L23.0708 3.61486C23.071 3.61233 23.0711 3.6099 23.0712 3.60746L23.0751 3.55967L23.0816 3.45334L23.081 3.34765L23.0758 3.2452L23.0635 3.1479L23.0473 3.05348L23.025 2.96357L23.002 2.89602L23.0021 2.88746L22.9721 2.78709L22.9434 2.74768C22.9859 2.60925 22.9871 2.48633 22.9426 2.39615L22.925 2.38858L22.871 2.34078L22.7872 2.28415L22.6517 2.24411L22.4294 2.26142L22.4174 2.26629L22.3625 2.24086L22.2809 2.20902L22.1961 2.18161L22.1071 2.15997L22.0149 2.14283L21.9195 2.1303L21.8211 2.12245L21.7195 2.11938L21.6133 2.12434L21.5037 2.13481L21.3913 2.15077L21.2756 2.17241L21.1564 2.20019L21.0326 2.23833L20.9057 2.2836L20.7751 2.33627L20.6413 2.39768L20.504 2.46992L20.3639 2.55117L20.2217 2.64379L20.0781 2.7465L19.9343 2.85959L19.7925 2.98359L19.6533 3.11616L19.5197 3.25738L19.3935 3.40555L19.2767 3.55813L19.1701 3.71361L19.0774 3.86971L18.9964 4.02482L18.9273 4.17768L18.8711 4.32711L18.8311 4.47176L18.8018 4.61235L18.7829 4.74897L18.7791 4.87947L18.7858 5.0059L18.8013 5.129Z" fill="#FEAE95"/>
</g>
<defs>
<clipPath id="clip0_0_27">
<rect width="60" height="39" fill="white"/>
</clipPath>
</defs>
</svg>
